<svg width="70" height="70" viewBox="0 0 70 70" fill="none" xmlns="http://www.w3.org/2000/svg">
<path fill-rule="evenodd" clip-rule="evenodd" d="M35 5.83333H40.8333V11.6667H46.6667V22.4642L67.0833 30.1V67.0833H70V70H0V67.0833H2.91667V35H20.4167V11.6667H26.25V5.83333H32.0833V0H35V5.83333ZM43.75 14.5833H23.3333V67.0833H26.25V61.25H40.8333V67.0833H43.75V14.5833ZM37.9167 64.1667H29.1667V67.0833H37.9167V64.1667ZM61.25 67.0833H64.1667V32.1212L46.6667 25.5792V67.0833H49.5833V61.25H61.25V67.0833ZM20.4167 37.9167H5.83333V67.0833H8.75V61.25H17.5V67.0833H20.4167V37.9167ZM14.5833 64.1667H11.6667V67.0833H14.5833V64.1667ZM58.3333 64.1667H52.5V67.0833H58.3333V64.1667ZM11.6667 49.5833V55.4167H8.75V49.5833H11.6667ZM17.5 49.5833V55.4167H14.5833V49.5833H17.5ZM32.0833 20.4167V55.4167H29.1667V20.4167H32.0833ZM61.25 52.5V55.4167H49.5833V52.5H61.25ZM37.9167 20.4167V55.4167H35V20.4167H37.9167ZM61.25 46.6667V49.5833H49.5833V46.6667H61.25ZM11.6667 40.8333V46.6667H8.75V40.8333H11.6667ZM17.5 40.8333V46.6667H14.5833V40.8333H17.5ZM61.25 40.8333V43.75H49.5833V40.8333H61.25ZM61.25 35V37.9167H49.5833V35H61.25ZM37.9167 8.75H29.1667V11.6667H37.9167V8.75Z" fill="white"/>
</svg>
