<svg width="70" height="70" viewBox="0 0 70 70" fill="none" xmlns="http://www.w3.org/2000/svg">
<path d="M34.9983 0C54.3161 0 70 15.6839 70 35.0017C70 54.3161 54.3161 70 34.9983 70C15.6839 70 0 54.3161 0 35.0017C0 15.6839 15.6839 0 34.9983 0V0ZM34.9983 5.25131C18.5791 5.25131 5.25131 18.5826 5.25131 35.0017C5.25131 51.4209 18.5791 64.7487 34.9983 64.7487C51.4174 64.7487 64.7487 51.4209 64.7487 35.0017C64.7487 18.5826 51.4174 5.25131 34.9983 5.25131V5.25131ZM32.3831 32.3831H20.13C18.6807 32.3831 17.5044 33.5594 17.5044 35.0087C17.5044 36.4581 18.6807 37.6344 20.13 37.6344H32.3831V49.8875C32.3831 51.3368 33.5594 52.5131 35.0088 52.5131C36.4581 52.5131 37.6344 51.3368 37.6344 49.8875V37.6344H49.8875C51.3368 37.6344 52.5131 36.4581 52.5131 35.0087C52.5131 33.5594 51.3368 32.3831 49.8875 32.3831H37.6344V20.13C37.6344 18.6807 36.4581 17.5044 35.0088 17.5044C33.5594 17.5044 32.3831 18.6807 32.3831 20.13V32.3831Z" fill="white"/>
</svg>
